<svg width="39" height="38" viewBox="0 0 39 38" fill="none" xmlns="http://www.w3.org/2000/svg">
<g id="user 1" clip-path="url(#clip0_8_18021)">
<path id="Vector" d="M25.5947 21.8993H12.9463C10.8906 21.9018 8.9198 22.7195 7.4662 24.1731C6.01259 25.6267 5.19487 27.5975 5.19238 29.6532V37.5417H33.3486V29.6532C33.3461 27.5975 32.5284 25.6267 31.0748 24.1731C29.6212 22.7195 27.6504 21.9018 25.5947 21.8993Z" fill="white"/>
<path id="Vector_2" d="M19.2712 18.7708C24.4546 18.7708 28.6566 14.5688 28.6566 9.38542C28.6566 4.20199 24.4546 0 19.2712 0C14.0877 0 9.88574 4.20199 9.88574 9.38542C9.88574 14.5688 14.0877 18.7708 19.2712 18.7708Z" fill="white"/>
</g>
<defs>
<clipPath id="clip0_8_18021">
<rect width="37.5417" height="37.5417" fill="white" transform="translate(0.5)"/>
</clipPath>
</defs>
</svg>
